# xmcd
#
# Track frame offsets:
#      150
#      15495
#      32488
#      62183
#      83673
#      109625
#      126003
#      145330
#      172213
#      194793
# 
# Disc length: 2963 seconds
#
# Revision: 16
# Processed by: cddbd v1.4PL0 Copyright (c) Steve Scherf et al.
#
# Submitted via: FreeRIP 1.20
#
DISCID=880b910a
DTITLE=Love and Rockets - Love and Rockets
DYEAR=1989
DGENRE=Rock
TTITLE0=Rock and Roll Babylon
TTITLE1=No New Tale To Tell (live)
TTITLE2=Ball Of Confusion (live)
TTITLE3=All In My Mind
TTITLE4=Kundalini Express
TTITLE5=Waiting For The Flood
TTITLE6=So Alive
TTITLE7=Yin And Yang (The Flower Pot Man)
TTITLE8=No Big Deal
TTITLE9=An American Dream
EXTD=\n\n\n\n\n\n ID3G:   2
EXTT0=
EXTT1=
EXTT2=
EXTT3=
EXTT4=
EXTT5=
EXTT6=
EXTT7=
EXTT8=
EXTT9=
PLAYORDER=
